<mxfile host="Electron" agent="Mozilla/5.0 (Windows NT 10.0; Win64; x64) AppleWebKit/537.36 (KHTML, like Gecko) draw.io/24.7.8 Chrome/128.0.6613.36 Electron/32.0.1 Safari/537.36" version="24.7.8">
  <diagram id="C5RBs43oDa-KdzZeNtuy" name="Page-1">
    <mxGraphModel dx="2074" dy="1196" grid="1" gridSize="10" guides="1" tooltips="1" connect="1" arrows="1" fold="1" page="1" pageScale="1" pageWidth="827" pageHeight="1169" math="0" shadow="0">
      <root>
        <mxCell id="WIyWlLk6GJQsqaUBKTNV-0" />
        <mxCell id="WIyWlLk6GJQsqaUBKTNV-1" parent="WIyWlLk6GJQsqaUBKTNV-0" />
        <mxCell id="zkfFHV4jXpPFQw0GAbJ--0" value="base_gpu" style="swimlane;fontStyle=2;align=center;verticalAlign=top;childLayout=stackLayout;horizontal=1;startSize=26;horizontalStack=0;resizeParent=1;resizeLast=0;collapsible=1;marginBottom=0;rounded=0;shadow=0;strokeWidth=1;" parent="WIyWlLk6GJQsqaUBKTNV-1" vertex="1">
          <mxGeometry x="80" y="240" width="360" height="160" as="geometry">
            <mxRectangle x="230" y="140" width="160" height="26" as="alternateBounds" />
          </mxGeometry>
        </mxCell>
        <mxCell id="zkfFHV4jXpPFQw0GAbJ--1" value="+ AddNewGPU(string gPU, string producer, string memoryType,Â &#xa;uint memorSize, uint price)" style="text;align=left;verticalAlign=top;spacingLeft=4;spacingRight=4;overflow=hidden;rotatable=0;points=[[0,0.5],[1,0.5]];portConstraint=eastwest;" parent="zkfFHV4jXpPFQw0GAbJ--0" vertex="1">
          <mxGeometry y="26" width="360" height="44" as="geometry" />
        </mxCell>
        <mxCell id="zkfFHV4jXpPFQw0GAbJ--3" value="+ SaveBase(stinrg name)" style="text;align=left;verticalAlign=top;spacingLeft=4;spacingRight=4;overflow=hidden;rotatable=0;points=[[0,0.5],[1,0.5]];portConstraint=eastwest;rounded=0;shadow=0;html=0;" parent="zkfFHV4jXpPFQw0GAbJ--0" vertex="1">
          <mxGeometry y="70" width="360" height="26" as="geometry" />
        </mxCell>
        <mxCell id="9rlQjR8mA24YFS76GL2Z-0" value="+ OpenFile(stirng name)" style="text;html=1;align=left;verticalAlign=middle;resizable=0;points=[];autosize=1;strokeColor=none;fillColor=none;" parent="zkfFHV4jXpPFQw0GAbJ--0" vertex="1">
          <mxGeometry y="96" width="360" height="30" as="geometry" />
        </mxCell>
        <mxCell id="9rlQjR8mA24YFS76GL2Z-1" value="+DeleteOne(int ind)" style="text;html=1;align=left;verticalAlign=middle;resizable=0;points=[];autosize=1;strokeColor=none;fillColor=none;" parent="zkfFHV4jXpPFQw0GAbJ--0" vertex="1">
          <mxGeometry y="126" width="360" height="30" as="geometry" />
        </mxCell>
        <mxCell id="zkfFHV4jXpPFQw0GAbJ--4" value="" style="line;html=1;strokeWidth=1;align=left;verticalAlign=middle;spacingTop=-1;spacingLeft=3;spacingRight=3;rotatable=0;labelPosition=right;points=[];portConstraint=eastwest;" parent="zkfFHV4jXpPFQw0GAbJ--0" vertex="1">
          <mxGeometry y="156" width="360" height="4" as="geometry" />
        </mxCell>
        <mxCell id="9rlQjR8mA24YFS76GL2Z-34" style="edgeStyle=orthogonalEdgeStyle;rounded=0;orthogonalLoop=1;jettySize=auto;html=1;entryX=1;entryY=0.5;entryDx=0;entryDy=0;endArrow=block;endFill=0;endSize=12;" parent="WIyWlLk6GJQsqaUBKTNV-1" source="9rlQjR8mA24YFS76GL2Z-2" target="9rlQjR8mA24YFS76GL2Z-27" edge="1">
          <mxGeometry relative="1" as="geometry">
            <Array as="points">
              <mxPoint x="800" y="315" />
              <mxPoint x="800" y="55" />
            </Array>
          </mxGeometry>
        </mxCell>
        <mxCell id="9rlQjR8mA24YFS76GL2Z-2" value="MainForm" style="swimlane;fontStyle=2;align=center;verticalAlign=top;childLayout=stackLayout;horizontal=1;startSize=26;horizontalStack=0;resizeParent=1;resizeLast=0;collapsible=1;marginBottom=0;rounded=0;shadow=0;strokeWidth=1;" parent="WIyWlLk6GJQsqaUBKTNV-1" vertex="1">
          <mxGeometry x="560" y="260" width="220" height="110" as="geometry">
            <mxRectangle x="230" y="140" width="160" height="26" as="alternateBounds" />
          </mxGeometry>
        </mxCell>
        <mxCell id="9rlQjR8mA24YFS76GL2Z-3" value="+ WriteToDataGrid()" style="text;align=left;verticalAlign=top;spacingLeft=4;spacingRight=4;overflow=hidden;rotatable=0;points=[[0,0.5],[1,0.5]];portConstraint=eastwest;" parent="9rlQjR8mA24YFS76GL2Z-2" vertex="1">
          <mxGeometry y="26" width="220" height="24" as="geometry" />
        </mxCell>
        <mxCell id="9rlQjR8mA24YFS76GL2Z-4" value="+ AddLastRecordToGrid()" style="text;align=left;verticalAlign=top;spacingLeft=4;spacingRight=4;overflow=hidden;rotatable=0;points=[[0,0.5],[1,0.5]];portConstraint=eastwest;rounded=0;shadow=0;html=0;" parent="9rlQjR8mA24YFS76GL2Z-2" vertex="1">
          <mxGeometry y="50" width="220" height="26" as="geometry" />
        </mxCell>
        <mxCell id="9rlQjR8mA24YFS76GL2Z-5" value="+ SearchGPU(string searchText)" style="text;html=1;align=left;verticalAlign=middle;resizable=0;points=[];autosize=1;strokeColor=none;fillColor=none;" parent="9rlQjR8mA24YFS76GL2Z-2" vertex="1">
          <mxGeometry y="76" width="220" height="30" as="geometry" />
        </mxCell>
        <mxCell id="9rlQjR8mA24YFS76GL2Z-7" value="" style="line;html=1;strokeWidth=1;align=left;verticalAlign=middle;spacingTop=-1;spacingLeft=3;spacingRight=3;rotatable=0;labelPosition=right;points=[];portConstraint=eastwest;" parent="9rlQjR8mA24YFS76GL2Z-2" vertex="1">
          <mxGeometry y="106" width="220" height="4" as="geometry" />
        </mxCell>
        <mxCell id="9rlQjR8mA24YFS76GL2Z-9" value="GPU" style="swimlane;fontStyle=2;align=center;verticalAlign=top;childLayout=stackLayout;horizontal=1;startSize=26;horizontalStack=0;resizeParent=1;resizeLast=0;collapsible=1;marginBottom=0;rounded=0;shadow=0;strokeWidth=1;" parent="WIyWlLk6GJQsqaUBKTNV-1" vertex="1">
          <mxGeometry x="145" y="510" width="230" height="370" as="geometry">
            <mxRectangle x="230" y="140" width="160" height="26" as="alternateBounds" />
          </mxGeometry>
        </mxCell>
        <mxCell id="9rlQjR8mA24YFS76GL2Z-10" value="+ GetGPU()" style="text;align=left;verticalAlign=top;spacingLeft=4;spacingRight=4;overflow=hidden;rotatable=0;points=[[0,0.5],[1,0.5]];portConstraint=eastwest;" parent="9rlQjR8mA24YFS76GL2Z-9" vertex="1">
          <mxGeometry y="26" width="230" height="24" as="geometry" />
        </mxCell>
        <mxCell id="9rlQjR8mA24YFS76GL2Z-11" value="+ SetGPU(string GPU)" style="text;align=left;verticalAlign=top;spacingLeft=4;spacingRight=4;overflow=hidden;rotatable=0;points=[[0,0.5],[1,0.5]];portConstraint=eastwest;rounded=0;shadow=0;html=0;" parent="9rlQjR8mA24YFS76GL2Z-9" vertex="1">
          <mxGeometry y="50" width="230" height="26" as="geometry" />
        </mxCell>
        <mxCell id="9rlQjR8mA24YFS76GL2Z-12" value="+ GetProducer()" style="text;html=1;align=left;verticalAlign=middle;resizable=0;points=[];autosize=1;strokeColor=none;fillColor=none;" parent="9rlQjR8mA24YFS76GL2Z-9" vertex="1">
          <mxGeometry y="76" width="230" height="30" as="geometry" />
        </mxCell>
        <mxCell id="9rlQjR8mA24YFS76GL2Z-15" value="+ SetProducer(string producer)" style="text;html=1;align=left;verticalAlign=middle;resizable=0;points=[];autosize=1;strokeColor=none;fillColor=none;" parent="9rlQjR8mA24YFS76GL2Z-9" vertex="1">
          <mxGeometry y="106" width="230" height="30" as="geometry" />
        </mxCell>
        <mxCell id="9rlQjR8mA24YFS76GL2Z-14" value="+ GetMemoryType()" style="text;html=1;align=left;verticalAlign=middle;resizable=0;points=[];autosize=1;strokeColor=none;fillColor=none;" parent="9rlQjR8mA24YFS76GL2Z-9" vertex="1">
          <mxGeometry y="136" width="230" height="30" as="geometry" />
        </mxCell>
        <mxCell id="9rlQjR8mA24YFS76GL2Z-16" value="+ SetMemoryType(string memoryType)" style="text;html=1;align=left;verticalAlign=middle;resizable=0;points=[];autosize=1;strokeColor=none;fillColor=none;" parent="9rlQjR8mA24YFS76GL2Z-9" vertex="1">
          <mxGeometry y="166" width="230" height="30" as="geometry" />
        </mxCell>
        <mxCell id="9rlQjR8mA24YFS76GL2Z-17" value="+ GetMemorySize()" style="text;html=1;align=left;verticalAlign=middle;resizable=0;points=[];autosize=1;strokeColor=none;fillColor=none;" parent="9rlQjR8mA24YFS76GL2Z-9" vertex="1">
          <mxGeometry y="196" width="230" height="30" as="geometry" />
        </mxCell>
        <mxCell id="9rlQjR8mA24YFS76GL2Z-18" value="+ SetMemorySize(uint memorySize)" style="text;html=1;align=left;verticalAlign=middle;resizable=0;points=[];autosize=1;strokeColor=none;fillColor=none;" parent="9rlQjR8mA24YFS76GL2Z-9" vertex="1">
          <mxGeometry y="226" width="230" height="30" as="geometry" />
        </mxCell>
        <mxCell id="9rlQjR8mA24YFS76GL2Z-19" value="+ GetPrice()" style="text;html=1;align=left;verticalAlign=middle;resizable=0;points=[];autosize=1;strokeColor=none;fillColor=none;" parent="9rlQjR8mA24YFS76GL2Z-9" vertex="1">
          <mxGeometry y="256" width="230" height="30" as="geometry" />
        </mxCell>
        <mxCell id="9rlQjR8mA24YFS76GL2Z-20" value="+ SetPrice(uint price)" style="text;html=1;align=left;verticalAlign=middle;resizable=0;points=[];autosize=1;strokeColor=none;fillColor=none;" parent="9rlQjR8mA24YFS76GL2Z-9" vertex="1">
          <mxGeometry y="286" width="230" height="30" as="geometry" />
        </mxCell>
        <mxCell id="9rlQjR8mA24YFS76GL2Z-21" value="+ Tostring()" style="text;html=1;align=left;verticalAlign=middle;resizable=0;points=[];autosize=1;strokeColor=none;fillColor=none;" parent="9rlQjR8mA24YFS76GL2Z-9" vertex="1">
          <mxGeometry y="316" width="230" height="30" as="geometry" />
        </mxCell>
        <mxCell id="9rlQjR8mA24YFS76GL2Z-33" style="edgeStyle=orthogonalEdgeStyle;rounded=0;orthogonalLoop=1;jettySize=auto;html=1;entryX=0.5;entryY=1;entryDx=0;entryDy=0;endArrow=blockThin;endFill=0;strokeWidth=1;endSize=14;" parent="WIyWlLk6GJQsqaUBKTNV-1" source="9rlQjR8mA24YFS76GL2Z-22" target="9rlQjR8mA24YFS76GL2Z-27" edge="1">
          <mxGeometry relative="1" as="geometry" />
        </mxCell>
        <mxCell id="9rlQjR8mA24YFS76GL2Z-22" value="FormAddNewGPU" style="swimlane;fontStyle=2;align=center;verticalAlign=top;childLayout=stackLayout;horizontal=1;startSize=26;horizontalStack=0;resizeParent=1;resizeLast=0;collapsible=1;marginBottom=0;rounded=0;shadow=0;strokeWidth=1;" parent="WIyWlLk6GJQsqaUBKTNV-1" vertex="1">
          <mxGeometry x="560" y="160" width="220" height="30" as="geometry">
            <mxRectangle x="230" y="140" width="160" height="26" as="alternateBounds" />
          </mxGeometry>
        </mxCell>
        <mxCell id="9rlQjR8mA24YFS76GL2Z-26" value="" style="line;html=1;strokeWidth=1;align=left;verticalAlign=middle;spacingTop=-1;spacingLeft=3;spacingRight=3;rotatable=0;labelPosition=right;points=[];portConstraint=eastwest;" parent="9rlQjR8mA24YFS76GL2Z-22" vertex="1">
          <mxGeometry y="26" width="220" height="4" as="geometry" />
        </mxCell>
        <mxCell id="9rlQjR8mA24YFS76GL2Z-27" value="Form" style="swimlane;fontStyle=2;align=center;verticalAlign=top;childLayout=stackLayout;horizontal=1;startSize=26;horizontalStack=0;resizeParent=1;resizeLast=0;collapsible=1;marginBottom=0;rounded=0;shadow=0;strokeWidth=1;" parent="WIyWlLk6GJQsqaUBKTNV-1" vertex="1">
          <mxGeometry x="560" y="40" width="220" height="30" as="geometry">
            <mxRectangle x="230" y="140" width="160" height="26" as="alternateBounds" />
          </mxGeometry>
        </mxCell>
        <mxCell id="9rlQjR8mA24YFS76GL2Z-28" value="" style="line;html=1;strokeWidth=1;align=left;verticalAlign=middle;spacingTop=-1;spacingLeft=3;spacingRight=3;rotatable=0;labelPosition=right;points=[];portConstraint=eastwest;" parent="9rlQjR8mA24YFS76GL2Z-27" vertex="1">
          <mxGeometry y="26" width="220" height="4" as="geometry" />
        </mxCell>
        <mxCell id="9rlQjR8mA24YFS76GL2Z-29" value="" style="endArrow=diamondThin;endFill=1;endSize=24;html=1;rounded=0;exitX=1;exitY=0.5;exitDx=0;exitDy=0;entryX=0;entryY=0.5;entryDx=0;entryDy=0;" parent="WIyWlLk6GJQsqaUBKTNV-1" source="zkfFHV4jXpPFQw0GAbJ--3" target="9rlQjR8mA24YFS76GL2Z-4" edge="1">
          <mxGeometry width="160" relative="1" as="geometry">
            <mxPoint x="330" y="610" as="sourcePoint" />
            <mxPoint x="490" y="610" as="targetPoint" />
          </mxGeometry>
        </mxCell>
        <mxCell id="9rlQjR8mA24YFS76GL2Z-31" value="" style="endArrow=open;endFill=1;endSize=12;html=1;rounded=0;entryX=0.5;entryY=1;entryDx=0;entryDy=0;exitX=0.5;exitY=0;exitDx=0;exitDy=0;" parent="WIyWlLk6GJQsqaUBKTNV-1" source="9rlQjR8mA24YFS76GL2Z-2" target="9rlQjR8mA24YFS76GL2Z-22" edge="1">
          <mxGeometry width="160" relative="1" as="geometry">
            <mxPoint x="690" y="210" as="sourcePoint" />
            <mxPoint x="490" y="410" as="targetPoint" />
          </mxGeometry>
        </mxCell>
        <mxCell id="9rlQjR8mA24YFS76GL2Z-32" value="" style="endArrow=diamondThin;endFill=0;endSize=24;html=1;rounded=0;exitX=0.5;exitY=0;exitDx=0;exitDy=0;entryX=0.5;entryY=1;entryDx=0;entryDy=0;" parent="WIyWlLk6GJQsqaUBKTNV-1" source="9rlQjR8mA24YFS76GL2Z-9" target="zkfFHV4jXpPFQw0GAbJ--0" edge="1">
          <mxGeometry width="160" relative="1" as="geometry">
            <mxPoint x="330" y="410" as="sourcePoint" />
            <mxPoint x="490" y="410" as="targetPoint" />
          </mxGeometry>
        </mxCell>
        <mxCell id="0Z4OkOPqyFtSG4ognGLI-0" value="" style="endArrow=diamondThin;endFill=0;endSize=24;html=1;rounded=0;exitX=0.5;exitY=0;exitDx=0;exitDy=0;entryX=0.5;entryY=1;entryDx=0;entryDy=0;" edge="1" parent="WIyWlLk6GJQsqaUBKTNV-1">
          <mxGeometry width="160" relative="1" as="geometry">
            <mxPoint x="80" y="1040" as="sourcePoint" />
            <mxPoint x="80" y="930" as="targetPoint" />
          </mxGeometry>
        </mxCell>
        <mxCell id="0Z4OkOPqyFtSG4ognGLI-1" value="ÐÐ³ÑÐµÐ³Ð°ÑÐ¸Ñ -ÑÑÐ¾ &lt;strong data-end=&quot;99&quot; data-start=&quot;16&quot;&gt;ÑÐ¸Ð¿ Ð¾ÑÐ½Ð¾ÑÐµÐ½Ð¸Ñ Ð¼ÐµÐ¶Ð´Ñ Ð¾Ð±ÑÐµÐºÑÐ°Ð¼Ð¸&lt;/strong&gt;&lt;div&gt;&lt;strong data-end=&quot;99&quot; data-start=&quot;16&quot;&gt;&amp;nbsp;Ð² Ð¾Ð±ÑÐµÐºÑÐ½Ð¾-Ð¾ÑÐ¸ÐµÐ½ÑÐ¸ÑÐ¾Ð²Ð°Ð½Ð½Ð¾Ð¼ Ð¿ÑÐ¾Ð³ÑÐ°Ð¼Ð¼Ð¸ÑÐ¾Ð²Ð°Ð½Ð¸Ð¸ (ÐÐÐ)&lt;/strong&gt;,&amp;nbsp;&lt;/div&gt;&lt;div&gt;Ð¿ÑÐ¸ ÐºÐ¾ÑÐ¾ÑÐ¾Ð¼ &lt;strong data-end=&quot;148&quot; data-start=&quot;113&quot;&gt;Ð¾Ð´Ð¸Ð½ Ð¾Ð±ÑÐµÐºÑ &quot;ÑÐ¾ÑÑÐ¾Ð¸Ñ Ð¸Ð·&quot; Ð´ÑÑÐ³Ð¸Ñ&lt;/strong&gt;,&amp;nbsp;&lt;div&gt;Ð½Ð¾ Ð¿ÑÐ¸ ÑÑÐ¾Ð¼ &lt;strong data-end=&quot;213&quot; data-start=&quot;162&quot;&gt;Ð¿Ð¾Ð´ÑÐ¸Ð½ÑÐ½Ð½ÑÐµ Ð¾Ð±ÑÐµÐºÑÑ Ð¼Ð¾Ð³ÑÑ ÑÑÑÐµÑÑÐ²Ð¾Ð²Ð°ÑÑ Ð¾ÑÐ´ÐµÐ»ÑÐ½Ð¾&lt;/strong&gt; Ð¾Ñ Ð³Ð»Ð°Ð²Ð½Ð¾Ð³Ð¾.&lt;/div&gt;&lt;/div&gt;" style="text;html=1;align=left;verticalAlign=middle;resizable=0;points=[];autosize=1;strokeColor=none;fillColor=none;" vertex="1" parent="WIyWlLk6GJQsqaUBKTNV-1">
          <mxGeometry x="100" y="930" width="480" height="70" as="geometry" />
        </mxCell>
        <mxCell id="0Z4OkOPqyFtSG4ognGLI-2" value="" style="endArrow=diamondThin;endFill=1;endSize=24;html=1;rounded=0;entryX=0;entryY=0.5;entryDx=0;entryDy=0;" edge="1" parent="WIyWlLk6GJQsqaUBKTNV-1">
          <mxGeometry width="160" relative="1" as="geometry">
            <mxPoint x="80" y="1150" as="sourcePoint" />
            <mxPoint x="80" y="1070" as="targetPoint" />
          </mxGeometry>
        </mxCell>
        <mxCell id="0Z4OkOPqyFtSG4ognGLI-3" value="&lt;strong data-start=&quot;32&quot; data-end=&quot;46&quot;&gt;ÐÐ¾Ð¼Ð¿Ð¾Ð·Ð¸ÑÐ¸Ñ&lt;/strong&gt;&amp;nbsp;â ÑÑÐ¾ ÑÐ¸Ð¿ Ð¾ÑÐ½Ð¾ÑÐµÐ½Ð¸Ñ Ð¼ÐµÐ¶Ð´Ñ ÐºÐ»Ð°ÑÑÐ°Ð¼Ð¸,&amp;nbsp;&lt;div&gt;ÐºÐ¾Ð³Ð´Ð° Ð¾Ð´Ð¸Ð½ ÐºÐ»Ð°ÑÑ&amp;nbsp;&lt;strong data-start=&quot;100&quot; data-end=&quot;118&quot;&gt;Ð¶ÑÑÑÐºÐ¾ Ð·Ð°Ð²Ð¸ÑÐ¸Ñ&lt;/strong&gt;&amp;nbsp;Ð¾Ñ Ð´ÑÑÐ³Ð¾Ð³Ð¾&amp;nbsp;&lt;/div&gt;&lt;div&gt;Ð¸&amp;nbsp;&lt;strong data-start=&quot;132&quot; data-end=&quot;166&quot;&gt;Ð½Ðµ Ð¼Ð¾Ð¶ÐµÑ ÑÑÑÐµÑÑÐ²Ð¾Ð²Ð°ÑÑ Ð¾ÑÐ´ÐµÐ»ÑÐ½Ð¾&lt;/strong&gt;. Ð Ð¾Ð¼Ð± ÑÐ¸ÑÑÐµÑÑÑ Ð²Ð¾Ð·Ð»Ðµ ÑÐ¾Ð³Ð¾ ÐºÐ»Ð°ÑÑÐ°,&amp;nbsp;&lt;/div&gt;&lt;div&gt;ÐºÐ¾ÑÐ¾ÑÑÐ¹ Ð²Ð½ÑÑÑÐ¸ ÑÐµÐ±Ñ Ð²ÐºÐ»ÑÑÐ°ÐµÑ Ð´ÑÑÐ³Ð¾Ð¹ ÑÐºÐµÐ¼Ð¿Ð»ÑÑ&amp;nbsp;&lt;/div&gt;&lt;div&gt;Ð´ÑÑÐ³Ð¾Ð³Ð¾ ÐºÐ»Ð°ÑÑÐ°&lt;/div&gt;" style="text;html=1;align=left;verticalAlign=middle;resizable=0;points=[];autosize=1;strokeColor=none;fillColor=none;" vertex="1" parent="WIyWlLk6GJQsqaUBKTNV-1">
          <mxGeometry x="100" y="1070" width="430" height="90" as="geometry" />
        </mxCell>
        <mxCell id="0Z4OkOPqyFtSG4ognGLI-4" value="" style="endArrow=open;endFill=1;endSize=12;html=1;rounded=0;entryX=0.5;entryY=1;entryDx=0;entryDy=0;exitX=0.5;exitY=0;exitDx=0;exitDy=0;" edge="1" parent="WIyWlLk6GJQsqaUBKTNV-1">
          <mxGeometry width="160" relative="1" as="geometry">
            <mxPoint x="80" y="1270" as="sourcePoint" />
            <mxPoint x="80" y="1200" as="targetPoint" />
          </mxGeometry>
        </mxCell>
        <mxCell id="0Z4OkOPqyFtSG4ognGLI-5" value="&lt;strong data-end=&quot;44&quot; data-start=&quot;30&quot; style=&quot;&quot;&gt;ÐÑÑÐ¾ÑÐ¸Ð°ÑÐ¸Ñ&lt;/strong&gt;&lt;span style=&quot;&quot;&gt;&amp;nbsp;â ÑÑÐ¾ ÑÐ²ÑÐ·Ñ Ð¼ÐµÐ¶Ð´Ñ Ð´Ð²ÑÐ¼Ñ ÐºÐ»Ð°ÑÑÐ°Ð¼Ð¸,&amp;nbsp;&lt;/span&gt;&lt;div style=&quot;&quot;&gt;Ð¿ÑÐ¸ ÐºÐ¾ÑÐ¾ÑÐ¾Ð¹&amp;nbsp;&lt;strong data-end=&quot;160&quot; data-start=&quot;91&quot;&gt;Ð¾Ð´Ð¸Ð½ ÐºÐ»Ð°ÑÑ Ð·Ð½Ð°ÐµÑ Ð¾ ÑÑÑÐµÑÑÐ²Ð¾Ð²Ð°Ð½Ð¸Ð¸ Ð´ÑÑÐ³Ð¾Ð³Ð¾ Ð¸ Ð¼Ð¾Ð¶ÐµÑ Ð¸ÑÐ¿Ð¾Ð»ÑÐ·Ð¾Ð²Ð°ÑÑ ÐµÐ³Ð¾&lt;/strong&gt;,&amp;nbsp;&lt;/div&gt;&lt;div style=&quot;&quot;&gt;Ð½Ð¾ Ð¿ÑÐ¸ ÑÑÐ¾Ð¼ Ð¾Ð±Ð° Ð¾Ð±ÑÐµÐºÑÐ° Ð¼Ð¾Ð³ÑÑ ÑÑÑÐµÑÑÐ²Ð¾Ð²Ð°ÑÑ&amp;nbsp;&lt;/div&gt;&lt;div style=&quot;&quot;&gt;&lt;strong data-end=&quot;233&quot; data-start=&quot;205&quot;&gt;Ð½ÐµÐ·Ð°Ð²Ð¸ÑÐ¸Ð¼Ð¾ Ð´ÑÑÐ³ Ð¾Ñ Ð´ÑÑÐ³Ð°&lt;/strong&gt;.&lt;/div&gt;" style="text;html=1;align=left;verticalAlign=middle;resizable=0;points=[];autosize=1;strokeColor=none;fillColor=none;" vertex="1" parent="WIyWlLk6GJQsqaUBKTNV-1">
          <mxGeometry x="100" y="1200" width="520" height="70" as="geometry" />
        </mxCell>
        <mxCell id="0Z4OkOPqyFtSG4ognGLI-6" style="edgeStyle=orthogonalEdgeStyle;rounded=0;orthogonalLoop=1;jettySize=auto;html=1;entryX=0.5;entryY=1;entryDx=0;entryDy=0;endArrow=blockThin;endFill=0;strokeWidth=1;endSize=14;" edge="1" parent="WIyWlLk6GJQsqaUBKTNV-1">
          <mxGeometry relative="1" as="geometry">
            <mxPoint x="80" y="1410" as="sourcePoint" />
            <mxPoint x="80" y="1320" as="targetPoint" />
          </mxGeometry>
        </mxCell>
        <mxCell id="0Z4OkOPqyFtSG4ognGLI-7" value="ÐÐ°ÑÐ»ÐµÐ´Ð¾Ð²Ð°Ð½Ð¸Ñ" style="text;html=1;align=center;verticalAlign=middle;resizable=0;points=[];autosize=1;strokeColor=none;fillColor=none;" vertex="1" parent="WIyWlLk6GJQsqaUBKTNV-1">
          <mxGeometry x="100" y="1320" width="100" height="30" as="geometry" />
        </mxCell>
      </root>
    </mxGraphModel>
  </diagram>
</mxfile>
